REM MD5 5d3e0da012c9c0d95b19891450b56932
FILE "Calcio Manager 2000 (Italy).bin" BINARY
  TRACK 01 MODE2/2352
    INDEX 01 00:00:00
  TRACK 02 AUDIO
    INDEX 00 05:59:37
    INDEX 01 06:01:37
  TRACK 03 AUDIO
    INDEX 00 06:10:35
    INDEX 01 06:12:35
  TRACK 04 AUDIO
    INDEX 00 07:07:44
    INDEX 01 07:09:44
  TRACK 05 AUDIO
    INDEX 00 09:42:72
    INDEX 01 09:44:72
REM LEADOUT 10:44:72
